<?xml version="1.0" standalone="no"?>
<!DOCTYPE svg PUBLIC "-//W3C//DTD SVG 20010904//EN"
 "http://www.w3.org/TR/2001/REC-SVG-20010904/DTD/svg10.dtd">
<svg version="1.0" xmlns="http://www.w3.org/2000/svg"
 width="500.000000pt" height="500.000000pt" viewBox="0 0 500.000000 500.000000"
 preserveAspectRatio="xMidYMid meet">
<metadata>
Created by potrace 1.14, written by Peter Selinger 2001-2017
</metadata>
<g transform="translate(0.000000,500.000000) scale(0.100000,-0.100000)"
fill="#000000" stroke="none">
<path d="M1359 4990 c-15 -9 -35 -55 -31 -72 1 -5 -2 -8 -8 -8 -5 0 -10 -5
-10 -10 0 -6 -7 -27 -17 -48 -9 -20 -15 -41 -14 -46 1 -5 -6 -17 -15 -27 -9
-11 -14 -19 -11 -19 3 0 -6 -26 -20 -57 -14 -32 -27 -67 -29 -77 -2 -11 -7
-22 -11 -25 -5 -3 -10 -15 -11 -26 -2 -11 -8 -23 -14 -26 -5 -3 -8 -10 -7 -15
1 -5 -2 -18 -6 -28 -10 -24 19 -48 49 -41 12 3 46 7 76 10 30 3 67 6 83 9 15
2 27 -2 27 -8 0 -6 4 -5 9 3 6 9 11 10 15 2 5 -8 13 -8 26 -1 12 6 21 6 25 1
3 -5 18 -9 33 -9 15 1 37 -2 50 -6 31 -10 52 9 46 42 -3 15 -8 29 -12 32 -4 3
-9 14 -10 25 -2 11 -8 24 -13 29 -5 6 -9 20 -9 32 0 12 -3 24 -7 26 -8 3 -83
187 -98 236 -3 12 -11 22 -17 22 -6 0 -8 9 -5 20 3 11 2 20 -2 20 -3 0 -11 10
-16 22 -12 26 -24 31 -46 18z"/>
<path d="M408 4600 c-19 -11 -18 -20 5 -73 9 -21 18 -45 19 -55 2 -9 5 -19 8
-22 6 -5 33 -61 34 -70 3 -18 82 -196 88 -198 4 -2 8 -13 8 -25 1 -28 31 -81
48 -85 15 -3 38 19 78 73 50 69 188 195 213 195 7 0 10 4 7 9 -4 5 -1 11 6 13
6 2 9 11 6 19 -7 19 -43 37 -208 103 -72 30 -87 36 -142 60 -21 9 -40 16 -43
16 -3 0 -20 7 -38 16 -74 39 -66 37 -89 24z"/>
<path d="M2303 4600 c-13 -5 -23 -7 -23 -4 0 3 -7 -2 -16 -10 -8 -9 -21 -16
-28 -16 -7 0 -34 -11 -59 -24 -25 -14 -48 -22 -51 -19 -3 4 -6 1 -6 -5 0 -6
-7 -9 -15 -6 -8 4 -15 2 -15 -4 0 -5 -16 -13 -35 -16 -19 -4 -35 -10 -35 -15
0 -4 -18 -13 -39 -20 -22 -6 -52 -18 -67 -26 -15 -8 -31 -12 -36 -9 -4 3 -11
-2 -14 -10 -3 -9 -10 -14 -15 -11 -4 3 -13 -4 -20 -17 -10 -19 -8 -25 27 -52
21 -17 39 -30 41 -29 5 5 133 -127 133 -137 0 -5 4 -10 8 -10 4 0 25 -23 47
-52 21 -29 40 -47 43 -40 2 7 11 12 20 12 8 0 12 3 9 7 -4 3 0 17 8 30 9 13
13 28 10 33 -4 6 1 13 9 16 9 3 14 10 11 14 -3 5 -1 11 5 15 6 4 8 10 5 15 -3
5 -1 11 5 15 5 3 10 15 10 25 0 10 5 20 11 22 6 2 12 16 12 31 1 15 5 27 9 27
5 0 14 18 24 50 11 37 28 70 37 70 6 0 8 3 4 6 -3 4 1 23 9 43 9 20 17 41 18
48 1 7 5 15 8 19 7 6 -13 45 -22 43 -3 0 -15 -4 -27 -9z"/>
<path d="M1325 4331 c-3 -6 -15 -8 -27 -6 -11 3 -26 1 -32 -3 -14 -9 -36 -14
-61 -13 -11 0 -22 -4 -25 -9 -3 -5 -21 -12 -40 -15 -19 -3 -37 -11 -41 -16 -3
-6 -8 -10 -10 -9 -8 3 -45 -14 -71 -32 -16 -11 -28 -17 -28 -15 0 7 -51 -36
-116 -99 -30 -28 -54 -56 -54 -62 0 -6 -6 -15 -12 -19 -7 -4 -18 -17 -24 -28
-6 -11 -23 -42 -37 -68 -15 -26 -27 -52 -27 -57 0 -5 -5 -21 -12 -37 -18 -45
-29 -106 -31 -183 -1 -25 -6 -48 -12 -52 -7 -5 -6 -8 0 -8 6 0 10 -15 10 -32
-1 -18 2 -43 7 -56 4 -12 9 -36 10 -52 1 -17 5 -30 8 -30 4 0 12 -22 19 -50 7
-27 18 -50 24 -50 5 0 7 -3 4 -6 -6 -7 33 -80 63 -118 36 -46 153 -156 166
-156 8 0 14 -4 14 -10 0 -5 7 -10 15 -10 8 0 15 -4 15 -10 0 -5 7 -10 15 -10
8 0 15 -5 15 -11 0 -6 9 -9 20 -6 11 3 18 1 14 -4 -3 -5 0 -9 6 -9 7 0 9 -13
5 -37 -10 -64 -13 -70 -48 -70 -60 -2 -92 -7 -104 -16 -9 -7 -13 -4 -13 10 0
11 -11 29 -25 41 -14 12 -25 19 -25 15 0 -3 -11 6 -25 21 -13 14 -27 26 -31
26 -3 0 -30 26 -60 58 -85 90 -94 101 -94 110 0 13 -33 38 -48 38 -12 -1 -37
-40 -60 -96 -5 -14 -18 -43 -28 -65 -10 -22 -19 -42 -19 -45 -4 -14 -29 -75
-61 -145 -10 -22 -19 -42 -19 -45 -2 -5 -19 -48 -32 -80 -22 -54 6 -68 70 -35
26 13 47 22 47 20 0 -2 16 3 35 11 50 20 54 17 14 -11 -51 -37 -69 -54 -131
-126 -32 -36 -55 -69 -51 -72 3 -4 -1 -7 -11 -7 -9 0 -15 -4 -11 -9 3 -5 -1
-15 -8 -23 -7 -7 -24 -35 -38 -63 -13 -27 -28 -53 -34 -57 -5 -4 -7 -8 -3 -8
4 0 -2 -24 -13 -52 -12 -29 -22 -62 -23 -73 -1 -11 -5 -29 -9 -40 -17 -53 -30
-292 -15 -301 3 -2 6 -19 6 -38 0 -19 4 -41 8 -48 5 -7 9 -22 10 -33 1 -11 11
-44 23 -73 12 -30 19 -58 16 -63 -4 -5 -3 -9 2 -9 10 0 43 -57 43 -75 0 -7 7
-16 16 -19 8 -3 13 -10 10 -15 -4 -5 -3 -11 2 -13 4 -1 23 -24 42 -50 18 -27
37 -48 42 -48 4 0 8 -4 8 -9 0 -11 85 -95 101 -99 6 -1 18 -9 26 -17 13 -14
20 -16 56 -19 6 -1 15 -5 18 -9 7 -9 3651 -11 3689 -2 14 4 31 7 38 7 6 1 12
5 12 9 0 5 6 6 13 4 6 -3 29 11 50 30 21 19 47 40 58 46 12 6 18 13 16 16 -3
2 12 21 34 41 21 20 39 43 39 50 0 6 5 12 10 12 6 0 10 7 10 15 0 8 4 15 9 15
5 0 14 14 21 30 7 17 16 30 21 30 5 0 9 9 9 19 0 11 6 26 13 33 6 8 18 24 25
36 10 18 10 22 0 22 -9 0 -8 3 2 10 8 5 11 10 5 10 -5 0 -4 5 3 12 7 7 12 20
12 30 0 10 4 18 9 18 5 0 8 8 7 17 -2 9 3 35 9 58 7 22 11 52 11 68 -1 15 1
27 4 27 7 0 5 144 -3 156 -3 6 -2 16 3 24 5 9 5 19 -2 27 -6 7 -8 13 -5 13 3
0 1 17 -4 38 -6 20 -11 46 -13 57 -2 11 -8 31 -14 45 -6 14 -20 51 -32 83 -12
31 -27 57 -32 57 -5 0 -6 5 -3 10 3 6 -2 21 -12 34 -10 13 -25 34 -33 46 -8
13 -25 35 -37 50 -13 15 -23 33 -23 40 0 6 -4 8 -10 5 -5 -3 -10 -3 -10 2 0
13 -46 63 -59 63 -6 0 -11 4 -11 9 0 5 -26 28 -57 52 -32 24 -59 47 -61 51 -2
4 -9 5 -16 2 -8 -3 -16 1 -19 9 -3 8 -23 21 -44 27 -21 7 -41 17 -44 22 -3 5
-16 10 -27 11 -12 1 -22 5 -22 9 0 4 -9 8 -21 8 -11 0 -29 5 -40 11 -29 15
-76 23 -186 33 -12 1 -25 5 -29 9 -4 3 -14 3 -23 -1 -36 -16 -56 -8 -57 23 -3
60 -16 159 -22 170 -3 5 -7 19 -8 30 0 11 -7 36 -15 55 -7 19 -12 38 -11 43 1
4 -3 7 -9 7 -5 0 -8 4 -4 10 6 10 -13 50 -30 62 -5 4 -6 8 -2 8 5 0 -1 13 -12
29 -12 16 -21 34 -21 39 0 6 -3 12 -7 14 -5 2 -20 21 -35 43 -28 41 -158 182
-158 171 0 -5 -35 22 -65 51 -7 7 -15 9 -19 6 -3 -4 -6 -1 -6 5 0 7 -4 12 -8
12 -5 0 -35 14 -68 32 -32 18 -66 33 -74 35 -9 1 -34 10 -55 19 -46 20 -75 27
-127 28 -21 1 -38 4 -38 8 0 8 -242 8 -255 0 -5 -4 -19 -7 -30 -8 -44 -5 -82
-13 -125 -30 -51 -19 -75 -20 -116 -3 -16 7 -32 12 -36 11 -5 -1 -8 3 -8 8 0
6 -11 10 -25 10 -14 0 -28 7 -31 15 -4 9 -13 13 -24 10 -9 -3 -23 1 -30 10 -7
8 -18 15 -26 15 -7 0 -25 5 -41 12 -15 7 -35 12 -43 13 -23 1 -42 -23 -35 -44
7 -23 -29 -49 -40 -30 -4 6 -13 8 -20 5 -7 -2 -16 -2 -20 2 -4 4 -15 8 -26 8
-10 1 -25 2 -32 3 -13 1 -47 66 -47 88 0 11 -40 93 -50 103 -3 3 -11 17 -19
33 -8 15 -18 27 -23 27 -4 0 -8 5 -8 11 0 11 -96 109 -137 139 -47 36 -108 68
-127 68 -5 0 -12 5 -15 11 -4 5 -19 12 -34 15 -14 2 -31 7 -37 11 -6 4 -20 8
-33 11 -12 2 -33 7 -47 10 -14 4 -57 7 -97 8 -39 0 -69 4 -66 9 2 4 2 7 -1 7
-3 0 -7 -4 -11 -9z"/>
<path d="M469 3839 c-32 -16 -92 -41 -104 -43 -7 -1 -19 -7 -27 -14 -8 -6 -23
-13 -34 -15 -10 -2 -37 -11 -59 -21 -22 -10 -44 -19 -50 -20 -11 -3 -72 -29
-122 -52 -17 -8 -35 -14 -41 -14 -5 0 -15 -6 -21 -14 -14 -16 1 -56 20 -56 5
0 29 -9 51 -20 23 -11 50 -20 59 -20 10 0 19 -4 21 -10 1 -5 12 -11 23 -13 11
-2 36 -10 55 -19 70 -33 185 -78 197 -78 7 0 13 -5 13 -11 0 -6 6 -9 14 -6 8
3 17 3 20 -1 11 -10 48 -13 41 -2 -3 5 -1 10 5 10 8 0 9 11 5 32 -4 18 -8 51
-9 74 -1 24 -5 46 -9 50 -4 4 -2 13 4 21 7 7 7 13 2 13 -11 0 -11 39 0 57 4 7
3 22 -4 34 -8 15 -8 19 0 15 7 -5 10 1 8 16 -2 13 0 38 5 56 14 50 -16 75 -63
51z"/>
</g>
</svg>
